<svg width="1024" height="1024" viewBox="0 0 1024 1024" fill="none" xmlns="http://www.w3.org/2000/svg">
<rect width="1024" height="1024" rx="100" fill="#007BFF"/>
<line x1="379" y1="278" x2="379" y2="188" stroke="#F9FAFC" stroke-width="20"/>
<line x1="634" y1="278" x2="634" y2="188" stroke="#F9FAFC" stroke-width="20"/>
<path d="M395.277 695.722C375.887 711.24 347.116 697.823 346.54 672.995L342.272 489.101C341.756 466.859 364.779 451.813 384.942 461.215L532.825 530.174C552.988 539.576 556.261 566.885 538.891 580.786L395.277 695.722Z" fill="#F9FAFC"/>
<rect x="262" y="260" width="500" height="350" rx="100" fill="#F9FAFC"/>
<rect x="312" y="310" width="400" height="250" rx="50" fill="#007BFF"/>
<path d="M397.01 626.691C393.686 629.184 388.949 626.77 389.012 622.616L391.248 473.755C391.303 470.055 395.22 467.695 398.517 469.375L515.397 528.929C518.695 530.609 519.088 535.164 516.127 537.384L397.01 626.691Z" fill="#007BFF"/>
<circle cx="415" cy="400" r="35" fill="#F9FAFC"/>
<circle cx="380" cy="188" r="30" fill="#F9FAFC"/>
<circle cx="634" cy="188" r="30" fill="#F9FAFC"/>
<circle cx="599" cy="400" r="35" fill="#F9FAFC"/>
<path d="M458 486C478.369 500.484 490.487 504.165 513 505C540.681 501.341 551.491 496.887 565 486" stroke="#F9FAFC" stroke-width="20" stroke-linecap="round"/>
<path d="M229.091 757.909L256.727 836.273H257.818L285.455 757.909H297.273L263.091 851H251.455L217.273 757.909H229.091ZM357.782 852.455C351.479 852.455 345.948 850.955 341.191 847.955C336.464 844.955 332.767 840.758 330.1 835.364C327.464 829.97 326.145 823.667 326.145 816.455C326.145 809.182 327.464 802.833 330.1 797.409C332.767 791.985 336.464 787.773 341.191 784.773C345.948 781.773 351.479 780.273 357.782 780.273C364.085 780.273 369.6 781.773 374.327 784.773C379.085 787.773 382.782 791.985 385.418 797.409C388.085 802.833 389.418 809.182 389.418 816.455C389.418 823.667 388.085 829.97 385.418 835.364C382.782 840.758 379.085 844.955 374.327 847.955C369.6 850.955 364.085 852.455 357.782 852.455ZM357.782 842.818C362.57 842.818 366.509 841.591 369.6 839.136C372.691 836.682 374.979 833.455 376.464 829.455C377.948 825.455 378.691 821.121 378.691 816.455C378.691 811.788 377.948 807.439 376.464 803.409C374.979 799.379 372.691 796.121 369.6 793.636C366.509 791.152 362.57 789.909 357.782 789.909C352.994 789.909 349.055 791.152 345.964 793.636C342.873 796.121 340.585 799.379 339.1 803.409C337.615 807.439 336.873 811.788 336.873 816.455C336.873 821.121 337.615 825.455 339.1 829.455C340.585 833.455 342.873 836.682 345.964 839.136C349.055 841.591 352.994 842.818 357.782 842.818ZM436.518 781.182L453.245 809.727L469.973 781.182H482.336L459.791 816.091L482.336 851H469.973L453.245 823.909L436.518 851H424.155L446.336 816.091L424.155 781.182H436.518ZM553.607 781.182V790.273H517.425V781.182H553.607ZM527.97 764.455H538.698V831C538.698 834.03 539.137 836.303 540.016 837.818C540.925 839.303 542.077 840.303 543.47 840.818C544.895 841.303 546.395 841.545 547.97 841.545C549.152 841.545 550.122 841.485 550.88 841.364C551.637 841.212 552.243 841.091 552.698 841L554.88 850.636C554.152 850.909 553.137 851.182 551.834 851.455C550.531 851.758 548.88 851.909 546.88 851.909C543.849 851.909 540.88 851.258 537.97 849.955C535.092 848.652 532.698 846.667 530.789 844C528.91 841.333 527.97 837.97 527.97 833.909V764.455ZM595.343 851V781.182H606.07V851H595.343ZM600.798 769.545C598.707 769.545 596.904 768.833 595.389 767.409C593.904 765.985 593.161 764.273 593.161 762.273C593.161 760.273 593.904 758.561 595.389 757.136C596.904 755.712 598.707 755 600.798 755C602.889 755 604.677 755.712 606.161 757.136C607.677 758.561 608.434 760.273 608.434 762.273C608.434 764.273 607.677 765.985 606.161 767.409C604.677 768.833 602.889 769.545 600.798 769.545ZM708.409 781.182L682.591 851H671.682L645.864 781.182H657.5L676.773 836.818H677.5L696.773 781.182H708.409ZM766.589 852.636C762.164 852.636 758.149 851.803 754.543 850.136C750.937 848.439 748.073 846 745.952 842.818C743.831 839.606 742.77 835.727 742.77 831.182C742.77 827.182 743.558 823.939 745.134 821.455C746.71 818.939 748.816 816.97 751.452 815.545C754.089 814.121 756.998 813.061 760.18 812.364C763.392 811.636 766.619 811.061 769.861 810.636C774.104 810.091 777.543 809.682 780.18 809.409C782.846 809.106 784.786 808.606 785.998 807.909C787.24 807.212 787.861 806 787.861 804.273V803.909C787.861 799.424 786.634 795.939 784.18 793.455C781.755 790.97 778.073 789.727 773.134 789.727C768.013 789.727 763.998 790.848 761.089 793.091C758.18 795.333 756.134 797.727 754.952 800.273L744.77 796.636C746.589 792.394 749.013 789.091 752.043 786.727C755.104 784.333 758.437 782.667 762.043 781.727C765.68 780.758 769.255 780.273 772.77 780.273C775.013 780.273 777.589 780.545 780.498 781.091C783.437 781.606 786.27 782.682 788.998 784.318C791.755 785.955 794.043 788.424 795.861 791.727C797.68 795.03 798.589 799.455 798.589 805V851H787.861V841.545H787.316C786.589 843.061 785.376 844.682 783.68 846.409C781.983 848.136 779.725 849.606 776.907 850.818C774.089 852.03 770.649 852.636 766.589 852.636ZM768.225 843C772.467 843 776.043 842.167 778.952 840.5C781.892 838.833 784.104 836.682 785.589 834.045C787.104 831.409 787.861 828.636 787.861 825.727V815.909C787.407 816.455 786.407 816.955 784.861 817.409C783.346 817.833 781.589 818.212 779.589 818.545C777.619 818.848 775.695 819.121 773.816 819.364C771.967 819.576 770.467 819.758 769.316 819.909C766.528 820.273 763.922 820.864 761.498 821.682C759.104 822.47 757.164 823.667 755.68 825.273C754.225 826.848 753.498 829 753.498 831.727C753.498 835.455 754.876 838.273 757.634 840.182C760.422 842.061 763.952 843 768.225 843Z" fill="white"/>
</svg>
